<mxfile host="app.diagrams.net" modified="2023-11-11T09:26:55.780Z" agent="Mozilla/5.0 (Windows NT 10.0; Win64; x64; rv:109.0) Gecko/20100101 Firefox/119.0" version="22.1.0" etag="0sFg1F3zWOtBfiux9-uH" type="github">
  <diagram name="Page-1" id="pWn3AuvLCKOLNfko1FJn">
    <mxGraphModel>
      <root>
        <mxCell id="0" />
        <mxCell id="1" parent="0" />
      </root>
    </mxGraphModel>
  </diagram>
</mxfile>
